<svg width="36" height="36" viewBox="0 0 36 36" fill="none" xmlns="http://www.w3.org/2000/svg">
<path d="M34 18C34 9.16344 26.8366 2 18 2C9.16344 2 2 9.16344 2 18C2 26.8366 9.16344 34 18 34V36C8.05887 36 0 27.9411 0 18C0 8.05887 8.05887 0 18 0C27.9411 0 36 8.05887 36 18C36 27.9411 27.9411 36 18 36V34C26.8366 34 34 26.8366 34 18Z" fill="black"/>
<path d="M19.5 2.07031C27.6331 2.82655 34 9.6693 34 18C34 26.3307 27.6331 33.1724 19.5 33.9287C11.3669 33.1724 5 26.3307 5 18C5 9.6693 11.3669 2.82655 19.5 2.07031Z" fill="black"/>
</svg>
