<svg width="36" height="36" viewBox="0 0 36 36" fill="none" xmlns="http://www.w3.org/2000/svg">
<path fill-rule="evenodd" clip-rule="evenodd" d="M18 0C27.9411 0 36 8.05887 36 18C36 27.9411 27.9411 36 18 36C8.05887 36 0 27.9411 0 18C0 8.05887 8.05887 0 18 0ZM16 33.875C16.0208 33.8776 16.0417 33.8784 16.0625 33.8809C16.0433 33.8785 16.0241 33.8764 16.0049 33.874C16.0032 33.8742 16.0016 33.8748 16 33.875ZM16.002 2.12402C8.10841 3.10738 2 9.84011 2 18C2 26.1608 8.11003 32.8919 16.0049 33.874C23.895 32.8876 30 26.1575 30 18C30 9.84144 23.8936 3.10909 16.002 2.12402Z" fill="black"/>
</svg>
