<svg width="36" height="36" viewBox="0 0 36 36" fill="none" xmlns="http://www.w3.org/2000/svg">
<path d="M34 18C34 9.16344 26.8366 2 18 2C9.16344 2 2 9.16344 2 18C2 26.8366 9.16344 34 18 34V36C8.05887 36 0 27.9411 0 18C0 8.05887 8.05887 0 18 0C27.9411 0 36 8.05887 36 18C36 27.9411 27.9411 36 18 36V34C26.8366 34 34 26.8366 34 18Z" fill="black"/>
<path d="M18 2C19.0254 2 20.0282 2.0969 21 2.28125C13.5975 3.6855 8 10.1889 8 18C8 25.8111 13.5975 32.3134 21 33.7178C20.0282 33.9021 19.0255 34 18 34C9.16344 34 2 26.8366 2 18C2 9.16344 9.16344 2 18 2Z" fill="black"/>
</svg>
