<svg width="766" height="764" viewBox="0 0 766 764" fill="none" xmlns="http://www.w3.org/2000/svg">
<path d="M448.559 743.289C461.213 741.82 466.612 747.211 464.757 759.462C457.28 761.062 449.724 762.446 442.093 763.604C439.28 760.303 438.652 756.108 440.211 751.019C442.15 747.434 444.933 744.858 448.559 743.289Z" fill="black" style="fill:black;fill-opacity:1;"/>
<path d="M303.868 684.759C327.321 683.593 343.83 693.532 353.396 714.576C356.49 733.938 348.515 745.903 329.467 750.467C309.81 751.85 294.784 744.305 284.39 727.828C276.376 706.924 282.87 692.568 303.868 684.759Z" fill="black" style="fill:black;fill-opacity:1;"/>
<path d="M548.73 669.299C567.084 669.26 573.948 678.095 569.321 695.803C562.704 710.046 551.388 716.856 535.374 716.232C524.071 712.773 519.805 705.227 522.574 693.594C526.998 680.837 535.717 672.738 548.73 669.299Z" fill="black" style="fill:black;fill-opacity:1;"/>
<path d="M161.402 692.489C173.771 691.803 181.562 697.326 184.775 709.055C184.56 710.051 184.3 710.981 183.998 711.843C175.254 706.498 166.74 700.813 158.476 694.807C159.415 693.95 160.389 693.177 161.402 692.489Z" fill="black" style="fill:black;fill-opacity:1;"/>
<path d="M421.847 603.038C445.736 602.896 455.94 614.676 452.455 638.377C445.644 654.183 433.586 660.626 416.282 657.703C400.512 652.373 394.39 641.513 397.917 625.125C401.869 613.283 409.846 605.92 421.847 603.038Z" fill="black" style="fill:black;fill-opacity:1;"/>
<path d="M84.6045 595.309C99.2338 597.479 109.065 605.576 114.1 619.604C116.559 627.121 116.188 634.483 112.986 641.69C110.129 644.46 107.169 646.189 104.107 646.88C93.7548 635.863 84.0446 624.235 75.0381 612.056C75.2949 608.462 76.0719 604.72 77.3701 600.83C79.5571 598.566 81.9689 596.725 84.6045 595.309Z" fill="black" style="fill:black;fill-opacity:1;"/>
<path d="M202.584 608.561C218.697 608.902 226.673 617 226.514 632.855C223.45 642.351 216.957 645.849 207.036 643.347C194.3 637.035 190.404 627.28 195.349 614.082C197.536 611.818 199.948 609.977 202.584 608.561Z" fill="black" style="fill:black;fill-opacity:1;"/>
<path d="M680.065 505.857C703.452 503.482 716.994 513.789 720.69 536.779C721.052 575.274 704.542 604.171 671.161 623.469C658.668 628.961 646.425 628.594 634.433 622.364C627.138 616.541 622.87 608.995 621.633 599.726C619.843 563.338 633.755 534.441 663.37 513.036C668.787 509.973 674.352 507.579 680.065 505.857Z" fill="black" style="fill:black;fill-opacity:1;"/>
<path d="M110.204 435.181C131.828 433.669 148.708 441.768 160.846 459.476C173.289 479.215 175.886 500.198 168.637 522.423C160.603 540.489 146.69 548.402 126.898 546.165C105.253 539.413 90.9696 525.24 84.0479 503.648C76.0299 481.437 79.5553 461.376 94.6221 443.463C99.4246 439.794 104.619 437.034 110.204 435.181Z" fill="black" style="fill:black;fill-opacity:1;"/>
<path d="M26.7285 505.857C37.6213 505.053 44.8556 509.838 48.4316 520.214C50.6587 528.696 48.6177 535.874 42.3105 541.748C39.4268 542.633 36.7665 543.02 34.3301 542.915C29.5836 532.49 25.289 521.815 21.4727 510.916C22.851 509.113 24.6036 507.427 26.7285 505.857Z" fill="black" style="fill:black;fill-opacity:1;"/>
<path d="M547.617 482.667C567.104 482.673 575.822 492.244 573.773 511.38C568.572 526.475 557.998 532.917 542.052 530.705C529.882 525.143 525.245 515.756 528.14 502.545C531.872 493.138 538.364 486.512 547.617 482.667Z" fill="black" style="fill:black;fill-opacity:1;"/>
<path d="M747.959 420.824C756.492 420.23 762.317 422.79 765.438 428.502C764.521 436.443 763.362 444.309 761.968 452.095C757.592 456.399 751.069 457.203 742.394 454.506C734.631 446.286 733.704 437.268 739.611 427.45C741.986 424.52 744.769 422.312 747.959 420.824Z" fill="black" style="fill:black;fill-opacity:1;"/>
<path d="M25.6152 337.999C34.586 337.572 41.8201 340.885 47.3184 347.938C60.9705 371.587 61.3426 395.513 48.4316 419.72C40.4536 432.415 29.8801 435.176 16.7109 428.002C6.10705 417.229 0.54813 404.406 0.0332031 389.533C0.0176621 388.438 0.00635777 387.342 0 386.245C0.00368314 385.992 0.00914391 385.739 0.015625 385.485C0.0234367 369.068 5.58864 354.897 16.7109 342.969C19.6036 340.986 22.5723 339.33 25.6152 337.999Z" fill="black" style="fill:black;fill-opacity:1;"/>
<path d="M658.918 352.355C678.29 350.828 690.718 359.294 696.204 377.755C699.578 394.026 695.31 407.83 683.404 419.167C666.663 428.853 652.751 425.723 641.667 409.78C635.954 397.194 635.211 384.31 639.44 371.129C643.609 362.39 650.101 356.132 658.918 352.355Z" fill="black" style="fill:black;fill-opacity:1;"/>
<path d="M189.228 358.981C200.485 359.658 205.493 365.55 204.253 376.651C200.107 385.049 193.615 387.442 184.775 383.829C177.808 377.004 177.438 369.826 183.663 362.295C185.494 360.974 187.348 359.869 189.228 358.981Z" fill="black" style="fill:black;fill-opacity:1;"/>
<path d="M117.995 315.913C136.678 315.442 142.8 323.907 136.36 341.312C130.798 346.952 124.303 348.24 116.882 345.178C106.228 334.894 106.599 325.14 117.995 315.913Z" fill="black" style="fill:black;fill-opacity:1;"/>
<path d="M486.401 254.07C508.811 253.964 518.642 265.008 515.896 287.2C510.911 300.078 501.45 305.784 487.515 304.317C468.894 296.021 463.885 282.584 472.488 264.01C476.16 259.171 480.798 255.857 486.401 254.07Z" fill="black" style="fill:black;fill-opacity:1;"/>
<path d="M727.925 259.592C744.791 261.058 752.768 270.261 751.854 287.2C747.815 297.987 740.58 300.748 730.15 295.482C721.23 288.07 718.077 278.683 720.69 267.322C722.576 264.166 724.988 261.589 727.925 259.592Z" fill="black" style="fill:black;fill-opacity:1;"/>
<path d="M31.1797 233.089C43.1334 232.24 49.9963 237.761 51.7705 249.653C53.873 264.361 48.8645 275.956 36.7451 284.439C25.7631 287.804 18.3109 286.145 14.3867 279.464C18.8444 263.667 24.2885 248.284 30.6465 233.385C30.823 233.285 31.0008 233.187 31.1797 233.089Z" fill="black" style="fill:black;fill-opacity:1;"/>
<path d="M567.651 247.444C576.226 246.955 581.977 250.638 584.903 258.488C584.733 269.696 578.982 274.665 567.651 273.396C559.333 269.951 556.55 263.877 559.304 255.175C561.243 251.59 564.025 249.014 567.651 247.444Z" fill="black" style="fill:black;fill-opacity:1;"/>
<path d="M268.251 202.167C279.932 200.41 289.393 204.091 296.633 213.21C303.213 235.598 294.866 248.85 271.591 252.966C253.557 250.338 245.951 240.031 248.773 222.045C251.76 211.905 258.253 205.279 268.251 202.167Z" fill="black" style="fill:black;fill-opacity:1;"/>
<path d="M183.663 74.0645C221.74 73.1944 242.145 91.5994 244.878 129.281C240.018 173.303 218.871 207.353 181.437 231.432C159.838 245.536 136.465 249.953 111.317 244.684C91.9499 236.495 81.0044 221.954 78.4834 201.062C76.9408 185.271 79.5385 170.179 86.2744 155.785C103.311 120.475 129.838 94.8912 165.854 79.0342C171.836 77.0022 177.772 75.3455 183.663 74.0645Z" fill="black" style="fill:black;fill-opacity:1;"/>
<path d="M662.258 162.411C683.538 163.645 696.152 174.688 700.1 195.541C698.075 211.831 689.171 217.169 673.388 211.554C657.496 203.161 650.261 190.093 651.684 172.35C654.361 168.034 657.886 164.721 662.258 162.411Z" fill="black" style="fill:black;fill-opacity:1;"/>
<path d="M483.062 50.874C522.866 48.4489 555.328 62.4378 580.451 92.8389C590.717 106.41 596.468 121.686 597.702 138.668C595.905 172.48 578.097 191.99 544.278 197.197C495.049 199.93 458.876 179.87 435.76 137.012C423.878 110.008 428.516 86.2642 449.672 65.7822C459.772 58.3402 470.903 53.3709 483.062 50.874Z" fill="black" style="fill:black;fill-opacity:1;"/>
<path d="M297.189 111.612C311.1 111.598 316.479 118.224 313.328 131.49C303.641 141.124 295.48 140.019 288.843 128.177C288.07 120.875 290.852 115.354 297.189 111.612Z" fill="black" style="fill:black;fill-opacity:1;"/>
<path d="M294.964 14.4307C307.54 13.312 318.67 16.6255 328.354 24.3701C336.362 34.9947 335.25 44.7495 325.016 53.6348C313.655 61.2425 301.04 65.1069 287.173 65.2295C276.538 65.0915 267.449 61.411 259.904 54.1865C255.29 41.4117 258.814 31.2882 270.478 23.8174C278.388 19.6739 286.55 16.5455 294.964 14.4307Z" fill="black" style="fill:black;fill-opacity:1;"/>
<path d="M388.608 0C389.73 0.0132135 390.851 0.0318707 391.971 0.0546875C400.81 0.777107 404.276 6.30532 402.369 16.6396C399.12 22.7408 394.112 24.7645 387.344 22.7129C377.007 15.1284 377.007 7.58145 387.344 0.0742188C387.774 0.0412922 388.196 0.0169192 388.608 0Z" fill="black" style="fill:black;fill-opacity:1;"/>
</svg>
