<svg width="36" height="36" viewBox="0 0 36 36" fill="none" xmlns="http://www.w3.org/2000/svg">
<path d="M34 18C34 9.16344 26.8366 2 18 2C9.16344 2 2 9.16344 2 18C2 26.8366 9.16344 34 18 34V36C8.05887 36 0 27.9411 0 18C0 8.05887 8.05887 0 18 0C27.9411 0 36 8.05887 36 18C36 27.9411 27.9411 36 18 36V34C26.8366 34 34 26.8366 34 18Z" fill="black"/>
<path d="M18 2C26.8366 2 34 9.16344 34 18C34 26.8366 26.8366 34 18 34C17.6641 34 17.3307 33.9882 17 33.9678C25.3707 33.4515 32 26.5007 32 18C32 9.4993 25.3707 2.54746 17 2.03125C17.3307 2.01085 17.6641 2 18 2Z" fill="black"/>
</svg>
