<svg width="36" height="36" viewBox="0 0 36 36" fill="none" xmlns="http://www.w3.org/2000/svg">
<path d="M34 18C34 9.16344 26.8366 2 18 2C9.16344 2 2 9.16344 2 18C2 26.8366 9.16344 34 18 34V36C8.05887 36 0 27.9411 0 18C0 8.05887 8.05887 0 18 0C27.9411 0 36 8.05887 36 18C36 27.9411 27.9411 36 18 36V34C26.8366 34 34 26.8366 34 18Z" fill="black"/>
<path d="M23.5 2.96973C17.3727 5.21249 13 11.0959 13 18C13 24.9037 17.3724 30.7862 23.499 33.0293H23.501C29.6276 30.7862 34 24.9037 34 18C34 11.0959 29.6273 5.21249 23.5 2.96973Z" fill="black"/>
</svg>
