<svg width="36" height="36" viewBox="0 0 36 36" fill="none" xmlns="http://www.w3.org/2000/svg">
<circle cx="18" cy="18" r="18" fill="white"/>
<circle cx="18" cy="18" r="18" fill="url(#paint0_linear_2031_320)" style="mix-blend-mode:plus-darker"/>
<g style="mix-blend-mode:multiply">
<path fill-rule="evenodd" clip-rule="evenodd" d="M9.74848 4.40315C11.335 4.36689 12.1853 5.13375 12.2991 6.70383C12.0967 8.53808 11.2155 9.95682 9.65573 10.9601C8.75577 11.5478 7.78188 11.7318 6.73408 11.5123C5.9271 11.1711 5.47104 10.5652 5.366 9.69473C5.30172 9.03673 5.40996 8.4079 5.69063 7.80816C6.4005 6.33692 7.50576 5.27092 9.00647 4.61021C9.25569 4.52554 9.50301 4.45652 9.74848 4.40315Z" fill="black" fill-opacity="0.1"/>
<path fill-rule="evenodd" clip-rule="evenodd" d="M22.2235 3.43687C23.8819 3.33583 25.2345 3.91868 26.2813 5.18539C26.7091 5.75086 26.9487 6.38737 27.0001 7.09496C26.9252 8.50381 26.1832 9.31674 24.7741 9.53369C22.7229 9.64758 21.2157 8.81169 20.2525 7.02594C19.7575 5.90077 19.9507 4.91147 20.8322 4.05806C21.2531 3.74797 21.7168 3.54091 22.2235 3.43687Z" fill="black" fill-opacity="0.1"/>
<path fill-rule="evenodd" clip-rule="evenodd" d="M14.386 1.9184C14.91 1.87179 15.3738 2.00983 15.7773 2.33253C16.111 2.77523 16.0646 3.18166 15.6382 3.55189C15.1648 3.86888 14.6392 4.02993 14.0614 4.03504C13.6183 4.02928 13.2396 3.87592 12.9252 3.5749C12.7329 3.04261 12.8798 2.6208 13.3658 2.30952C13.6954 2.13688 14.0354 2.00652 14.386 1.9184Z" fill="black" fill-opacity="0.1"/>
<path fill-rule="evenodd" clip-rule="evenodd" d="M18.2352 1.32021C18.7447 1.28124 18.9533 1.51131 18.8612 2.01042C18.7259 2.26465 18.5172 2.34899 18.2352 2.26349C17.8045 1.94747 17.8045 1.63301 18.2352 1.32021Z" fill="black" fill-opacity="0.1"/>
<path fill-rule="evenodd" clip-rule="evenodd" d="M14.4788 5.96761C15.0584 5.96702 15.2825 6.2431 15.1512 6.79586C14.7476 7.19728 14.4075 7.15127 14.131 6.65782C14.0988 6.35358 14.2147 6.12351 14.4788 5.96761Z" fill="black" fill-opacity="0.1"/>
<path fill-rule="evenodd" clip-rule="evenodd" d="M29.6899 8.08424C30.5766 8.13564 31.1022 8.59578 31.2667 9.46466C31.1823 10.1434 30.8113 10.3658 30.1537 10.1319C29.4915 9.78215 29.1901 9.23767 29.2494 8.49837C29.3609 8.31855 29.5078 8.1805 29.6899 8.08424Z" fill="black" fill-opacity="0.1"/>
<path fill-rule="evenodd" clip-rule="evenodd" d="M13.273 9.74073C13.7597 9.66752 14.1539 9.82088 14.4556 10.2009C14.7298 11.1337 14.3819 11.6859 13.4121 11.8574C12.6607 11.7478 12.3438 11.3184 12.4614 10.569C12.5859 10.1465 12.8564 9.8704 13.273 9.74073Z" fill="black" fill-opacity="0.1"/>
<path fill-rule="evenodd" clip-rule="evenodd" d="M3.39503 11.0291C3.8931 10.9938 4.17905 11.2238 4.25298 11.7193C4.34058 12.3322 4.13189 12.8153 3.62691 13.1688C2.94041 13.3791 2.58485 13.1183 2.56027 12.3865C2.58754 11.7711 2.86579 11.3186 3.39503 11.0291Z" fill="black" fill-opacity="0.1"/>
<path fill-rule="evenodd" clip-rule="evenodd" d="M25.748 11.6273C26.1053 11.6069 26.3449 11.7603 26.4668 12.0874C26.4597 12.5544 26.2201 12.7615 25.748 12.7086C25.4014 12.5651 25.2855 12.312 25.4002 11.9494C25.481 11.8 25.5969 11.6927 25.748 11.6273Z" fill="black" fill-opacity="0.1"/>
<path fill-rule="evenodd" clip-rule="evenodd" d="M22.3626 11.9034C23.2963 11.899 23.7059 12.3591 23.5915 13.2838C23.3838 13.8204 22.9896 14.0581 22.409 13.997C21.6331 13.6513 21.4244 13.0915 21.7829 12.3175C21.9359 12.1159 22.1291 11.9778 22.3626 11.9034Z" fill="black" fill-opacity="0.1"/>
<path fill-rule="evenodd" clip-rule="evenodd" d="M32.4261 12.1335C33.1288 12.1946 33.4612 12.578 33.4231 13.2838C33.2548 13.7333 32.9534 13.8483 32.5188 13.6289C32.1471 13.3201 32.0157 12.9289 32.1246 12.4555C32.2032 12.324 32.3037 12.2167 32.4261 12.1335Z" fill="black" fill-opacity="0.1"/>
<path fill-rule="evenodd" clip-rule="evenodd" d="M7.01233 14.4802C7.79079 14.4605 8.04586 14.8132 7.77753 15.5385C7.54574 15.7735 7.27519 15.8271 6.96596 15.6995C6.52205 15.271 6.53749 14.8646 7.01233 14.4802Z" fill="black" fill-opacity="0.1"/>
<path fill-rule="evenodd" clip-rule="evenodd" d="M3.16315 15.4004C3.53694 15.3826 3.83838 15.5206 4.06748 15.8145C4.63632 16.7999 4.65181 17.7968 4.11385 18.8054C3.78143 19.3344 3.34087 19.4494 2.79215 19.1505C2.31073 18.6615 2.07885 18.0709 2.09652 17.379C2.09684 16.695 2.32872 16.1045 2.79215 15.6075C2.91268 15.5249 3.03636 15.4559 3.16315 15.4004Z" fill="black" fill-opacity="0.1"/>
<path fill-rule="evenodd" clip-rule="evenodd" d="M29.5508 15.9986C30.358 15.935 30.8758 16.2877 31.1044 17.0569C31.2449 17.7349 31.0671 18.3101 30.5711 18.7824C29.8735 19.186 29.2938 19.0556 28.832 18.3913C28.5939 17.8669 28.563 17.3301 28.7392 16.7808C28.9129 16.4167 29.1834 16.156 29.5508 15.9986Z" fill="black" fill-opacity="0.1"/>
<path fill-rule="evenodd" clip-rule="evenodd" d="M9.98035 16.2747C10.4494 16.3029 10.6581 16.5483 10.6064 17.0109C10.4337 17.3608 10.1632 17.4606 9.79485 17.31C9.50454 17.0256 9.4891 16.7265 9.74848 16.4127C9.82477 16.3577 9.90203 16.3117 9.98035 16.2747Z" fill="black" fill-opacity="0.1"/>
<path fill-rule="evenodd" clip-rule="evenodd" d="M33.2608 18.8515C33.7737 18.8157 34.052 19.0535 34.0956 19.5647C33.9986 20.2158 33.643 20.4458 33.0289 20.2549C32.7055 19.9124 32.6668 19.5366 32.913 19.1275C33.012 19.0055 33.1279 18.9134 33.2608 18.8515Z" fill="black" fill-opacity="0.1"/>
<path fill-rule="evenodd" clip-rule="evenodd" d="M6.68769 19.4496C7.58867 19.3866 8.29205 19.7241 8.79777 20.4619C9.31625 21.2844 9.42444 22.1587 9.1224 23.0847C8.78766 23.8375 8.20797 24.1672 7.38332 24.074C6.48141 23.7927 5.88627 23.2022 5.59787 22.3025C5.26378 21.377 5.41065 20.5411 6.03843 19.7947C6.23854 19.6419 6.45498 19.5268 6.68769 19.4496Z" fill="black" fill-opacity="0.1"/>
<path fill-rule="evenodd" clip-rule="evenodd" d="M24.9132 21.4282C25.7252 21.4285 26.0884 21.8273 26.0031 22.6246C25.7864 23.2536 25.3458 23.522 24.6814 23.4298C24.1743 23.1981 23.9811 22.807 24.1017 22.2565C24.2572 21.8645 24.5277 21.5885 24.9132 21.4282Z" fill="black" fill-opacity="0.1"/>
<path fill-rule="evenodd" clip-rule="evenodd" d="M30.4319 22.3945C31.4064 22.2955 31.9706 22.725 32.1246 23.6829C32.1397 25.2868 31.4518 26.4909 30.0609 27.295C29.5404 27.5238 29.0302 27.5085 28.5305 27.249C28.2266 27.0063 28.0488 26.6919 27.9972 26.3057C27.9226 24.7895 28.5023 23.5855 29.7363 22.6936C29.962 22.566 30.1939 22.4662 30.4319 22.3945Z" fill="black" fill-opacity="0.1"/>
<path fill-rule="evenodd" clip-rule="evenodd" d="M3.20954 22.3945C3.66341 22.361 3.96485 22.5604 4.11386 22.9927C4.20666 23.3461 4.1216 23.6452 3.85879 23.89C3.41447 24.0263 3.09759 23.8805 2.9081 23.4528C2.74365 23.0171 2.84415 22.6644 3.20954 22.3945Z" fill="black" fill-opacity="0.1"/>
<path fill-rule="evenodd" clip-rule="evenodd" d="M19.6728 26.4437C20.6682 26.4378 21.0933 26.9286 20.9481 27.9162C20.6643 28.5748 20.1619 28.8432 19.4409 28.7214C18.7838 28.4993 18.5288 28.0468 18.6757 27.364C18.8404 26.8706 19.1728 26.5638 19.6728 26.4437Z" fill="black" fill-opacity="0.1"/>
<path fill-rule="evenodd" clip-rule="evenodd" d="M5.62105 26.1216C6.23061 26.212 6.64024 26.5495 6.85 27.1339C6.95249 27.4471 6.93705 27.7539 6.80362 28.0542C6.5122 28.3367 6.19527 28.3597 5.85293 28.1232C5.26108 27.6503 5.08328 27.0598 5.31961 26.3517C5.41074 26.2574 5.51123 26.1807 5.62105 26.1216Z" fill="black" fill-opacity="0.1"/>
<path fill-rule="evenodd" clip-rule="evenodd" d="M10.5369 26.6738C11.2082 26.688 11.5406 27.0254 11.5339 27.6861C11.4063 28.0818 11.1357 28.2275 10.7224 28.1232C10.1917 27.8603 10.0294 27.4538 10.2354 26.9039C10.3265 26.8095 10.427 26.7328 10.5369 26.6738Z" fill="black" fill-opacity="0.1"/>
<path fill-rule="evenodd" clip-rule="evenodd" d="M24.9596 29.2045C25.7244 29.2029 26.0104 29.571 25.8176 30.3089C25.5419 30.9024 25.0704 31.1861 24.4031 31.1601C23.9322 31.016 23.7544 30.7016 23.8698 30.2169C24.0541 29.6853 24.4174 29.3478 24.9596 29.2045Z" fill="black" fill-opacity="0.1"/>
<path fill-rule="evenodd" clip-rule="evenodd" d="M14.757 29.8487C15.7342 29.8001 16.4221 30.2143 16.8207 31.0911C16.9497 31.8979 16.6173 32.3964 15.8237 32.5866C15.0046 32.6442 14.3786 32.3298 13.9455 31.6433C13.6115 30.7723 13.8821 30.1741 14.757 29.8487Z" fill="black" fill-opacity="0.1"/>
<path fill-rule="evenodd" clip-rule="evenodd" d="M8.82096 30.1708C9.33633 30.1423 9.66096 30.3723 9.79485 30.8611C9.71318 31.2391 9.4813 31.3848 9.09922 31.2982C8.65777 31.12 8.49545 30.8056 8.61227 30.3549C8.67706 30.2827 8.74662 30.2213 8.82096 30.1708Z" fill="black" fill-opacity="0.1"/>
<path fill-rule="evenodd" clip-rule="evenodd" d="M20.7858 32.2875C21.3187 32.2256 21.5429 32.4557 21.4583 32.9777C21.2888 33.28 21.0337 33.3797 20.6931 33.2768C20.433 33.126 20.3479 32.9036 20.438 32.6096C20.5188 32.4602 20.6347 32.3529 20.7858 32.2875Z" fill="black" fill-opacity="0.1"/>
</g>
<path d="M14.626 0.316406C22.9534 1.89656 29.25 9.2128 29.25 18C29.25 26.7875 22.9528 34.1028 14.625 35.6826C15.1676 35.7855 15.7188 35.8636 16.2773 35.917C7.1444 35.0498 0 27.36 0 18C0 9.21214 6.29765 1.89582 14.626 0.316406Z" fill="url(#paint1_linear_2031_320)" fill-opacity="0.75" style="mix-blend-mode:screen"/>
<defs>
<linearGradient id="paint0_linear_2031_320" x1="0" y1="18" x2="36" y2="18" gradientUnits="userSpaceOnUse">
<stop stop-opacity="0"/>
<stop offset="0.75" stop-opacity="0.75"/>
<stop offset="1"/>
</linearGradient>
<linearGradient id="paint1_linear_2031_320" x1="29.25" y1="18.1167" x2="4.60073e-07" y2="18.1167" gradientUnits="userSpaceOnUse">
<stop stop-color="white" stop-opacity="0"/>
<stop offset="1" stop-color="white" stop-opacity="0.88"/>
</linearGradient>
</defs>
</svg>
