<svg width="36" height="36" viewBox="0 0 36 36" fill="none" xmlns="http://www.w3.org/2000/svg">
<path fill-rule="evenodd" clip-rule="evenodd" d="M18 0C27.9411 0 36 8.05887 36 18C36 27.9411 27.9411 36 18 36C8.05887 36 0 27.9411 0 18C0 8.05887 8.05887 0 18 0ZM11 32.3896C11.0623 32.42 11.1257 32.448 11.1885 32.4775C11.1264 32.4483 11.0655 32.4167 11.0039 32.3867L11 32.3896ZM11.001 3.60938C5.67226 6.20586 2 11.6736 2 18C2 24.3269 5.67446 29.7909 11.0039 32.3867C16.3296 29.7891 20 24.3242 20 18C20 11.6742 16.3288 6.20619 11.001 3.60938Z" fill="black"/>
</svg>
