<svg width="36" height="36" viewBox="0 0 36 36" fill="none" xmlns="http://www.w3.org/2000/svg">
<path d="M34 18C34 9.16344 26.8366 2 18 2C9.16344 2 2 9.16344 2 18C2 26.8366 9.16344 34 18 34V36C8.05887 36 0 27.9411 0 18C0 8.05887 8.05887 0 18 0C27.9411 0 36 8.05887 36 18C36 27.9411 27.9411 36 18 36V34C26.8366 34 34 26.8366 34 18Z" fill="black"/>
<path d="M12.2049 3.08247C11.7948 3.24194 11.3929 3.4179 11 3.60938C16.3283 6.20603 20 11.6739 20 18C20 24.3259 16.3281 29.793 11 32.3898C11.7813 32.7705 12.5984 33.0891 13.4444 33.3403C6.82743 31.3782 2 25.2537 2 18C2 11.2074 6.23304 5.40404 12.2049 3.08247Z" fill="black"/>
</svg>
