<svg width="36" height="36" viewBox="0 0 36 36" fill="none" xmlns="http://www.w3.org/2000/svg">
<path d="M34 18C34 9.16344 26.8366 2 18 2C9.16344 2 2 9.16344 2 18C2 26.8366 9.16344 34 18 34V36C8.05887 36 0 27.9411 0 18C0 8.05887 8.05887 0 18 0C27.9411 0 36 8.05887 36 18C36 27.9411 27.9411 36 18 36V34C26.8366 34 34 26.8366 34 18Z" fill="black"/>
<path d="M21.5 2.38477C28.6531 3.98105 34 10.3657 34 18C34 25.6342 28.653 32.0179 21.5 33.6143C14.347 32.0179 9 25.6342 9 18C9 10.3657 14.3469 3.98105 21.5 2.38477Z" fill="black"/>
</svg>
