<svg width="36" height="36" viewBox="0 0 36 36" fill="none" xmlns="http://www.w3.org/2000/svg">
<path d="M34 18C34 9.16344 26.8366 2 18 2C9.16344 2 2 9.16344 2 18C2 26.8366 9.16344 34 18 34V36C8.05887 36 0 27.9411 0 18C0 8.05887 8.05887 0 18 0C27.9411 0 36 8.05887 36 18C36 27.9411 27.9411 36 18 36V34C26.8366 34 34 26.8366 34 18Z" fill="black"/>
<path d="M15.0009 2.28125C22.403 3.68583 28 10.1892 28 18C28 25.8111 22.4025 32.3136 15 33.7179C15.4823 33.8094 15.9723 33.8787 16.4688 33.9262C8.35057 33.1554 2 26.32 2 18C2 10.1886 7.59791 3.68517 15.0009 2.28125Z" fill="black"/>
</svg>
