<svg width="36" height="36" viewBox="0 0 36 36" fill="none" xmlns="http://www.w3.org/2000/svg">
<path d="M34 18C34 9.16344 26.8366 2 18 2C9.16344 2 2 9.16344 2 18C2 26.8366 9.16344 34 18 34V36C8.05887 36 0 27.9411 0 18C0 8.05887 8.05887 0 18 0C27.9411 0 36 8.05887 36 18C36 27.9411 27.9411 36 18 36V34C26.8366 34 34 26.8366 34 18Z" fill="black"/>
<path d="M18 2C20.5039 2 22.8731 2.57613 24.9834 3.60156C24.8237 3.52394 24.6627 3.44839 24.5 3.37598C18.9027 5.86757 15 11.4778 15 18C15 24.522 18.9029 30.1314 24.5 32.623C26.2392 31.8488 27.8144 30.773 29.1602 29.4629C26.2776 32.2698 22.3413 34 18 34C9.16344 34 2 26.8366 2 18C2 9.16344 9.16344 2 18 2Z" fill="black"/>
</svg>
