<svg width="36" height="36" viewBox="0 0 36 36" fill="none" xmlns="http://www.w3.org/2000/svg">
<path d="M34 18C34 9.16344 26.8366 2 18 2C9.16344 2 2 9.16344 2 18C2 26.8366 9.16344 34 18 34V36C8.05887 36 0 27.9411 0 18C0 8.05887 8.05887 0 18 0C27.9411 0 36 8.05887 36 18C36 27.9411 27.9411 36 18 36V34C26.8366 34 34 26.8366 34 18Z" fill="black"/>
<path d="M14.1823 0.516602C13.7821 0.626935 13.3878 0.754066 13 0.897461C19.3877 3.2596 24 10.0234 24 18C24 25.9765 19.3875 32.7393 13 35.1016C13.9794 35.4638 15.0004 35.7229 16.053 35.8672C8.13476 34.7864 2 27.1996 2 18C2 9.53912 7.18918 2.44265 14.1823 0.516602Z" fill="black"/>
</svg>
