<svg width="36" height="36" viewBox="0 0 36 36" fill="none" xmlns="http://www.w3.org/2000/svg">
<path d="M34 18C34 9.16344 26.8366 2 18 2C9.16344 2 2 9.16344 2 18C2 26.8366 9.16344 34 18 34V36C8.05887 36 0 27.9411 0 18C0 8.05887 8.05887 0 18 0C27.9411 0 36 8.05887 36 18C36 27.9411 27.9411 36 18 36V34C26.8366 34 34 26.8366 34 18Z" fill="black"/>
<path d="M18.5 2.00781C27.1052 2.27196 34 9.33072 34 18C34 26.6693 27.1052 33.727 18.5 33.9912C9.89481 33.727 3 26.6693 3 18C3 9.33072 9.8948 2.27196 18.5 2.00781Z" fill="black"/>
</svg>
