<svg width="36" height="36" viewBox="0 0 36 36" fill="none" xmlns="http://www.w3.org/2000/svg">
<path d="M34 18C34 9.16344 26.8366 2 18 2C9.16344 2 2 9.16344 2 18C2 26.8366 9.16344 34 18 34V36C8.05887 36 0 27.9411 0 18C0 8.05887 8.05887 0 18 0C27.9411 0 36 8.05887 36 18C36 27.9411 27.9411 36 18 36V34C26.8366 34 34 26.8366 34 18Z" fill="black"/>
<path d="M18 2C20.1219 2 22.147 2.41395 24 3.16406C18.1365 5.5377 14 11.2854 14 18C14 24.7145 18.1367 30.4612 24 32.835C22.1469 33.5852 20.1221 34 18 34C9.16344 34 2 26.8366 2 18C2 9.16344 9.16344 2 18 2Z" fill="black"/>
</svg>
