<svg width="36" height="36" viewBox="0 0 36 36" fill="none" xmlns="http://www.w3.org/2000/svg">
<path fill-rule="evenodd" clip-rule="evenodd" d="M18 0C27.9411 0 36 8.05887 36 18C36 27.9411 27.9411 36 18 36C8.05887 36 0 27.9411 0 18C0 8.05887 8.05887 0 18 0ZM14 33.4951C14.1514 33.5341 14.3039 33.5699 14.457 33.6045C14.3062 33.5704 14.157 33.5305 14.0078 33.4922C14.0051 33.4929 14.0027 33.4944 14 33.4951ZM14 2.50391C7.09907 4.28006 2 10.5446 2 18C2 25.4577 7.1036 31.7183 14.0078 33.4922C20.9045 31.7132 26 25.4524 26 18C26 10.5446 20.9009 4.28006 14 2.50391Z" fill="black"/>
</svg>
