<svg width="36" height="36" viewBox="0 0 36 36" fill="none" xmlns="http://www.w3.org/2000/svg">
<path d="M34 18C34 9.16344 26.8366 2 18 2C9.16344 2 2 9.16344 2 18C2 26.8366 9.16344 34 18 34V36C8.05887 36 0 27.9411 0 18C0 8.05887 8.05887 0 18 0C27.9411 0 36 8.05887 36 18C36 27.9411 27.9411 36 18 36V34C26.8366 34 34 26.8366 34 18Z" fill="black"/>
<path d="M14 2.50391C20.9009 4.28006 26 10.5446 26 18C26 25.4553 20.9008 31.7189 14 33.4951C14.1514 33.5341 14.3039 33.5699 14.457 33.6045C7.32562 31.9922 2 25.6189 2 18C2 10.5446 7.09907 4.28006 14 2.50391Z" fill="black"/>
</svg>
