<svg width="36" height="36" viewBox="0 0 36 36" fill="none" xmlns="http://www.w3.org/2000/svg">
<path d="M34 18C34 9.16344 26.8366 2 18 2C9.16344 2 2 9.16344 2 18C2 26.8366 9.16344 34 18 34V36C8.05887 36 0 27.9411 0 18C0 8.05887 8.05887 0 18 0C27.9411 0 36 8.05887 36 18C36 27.9411 27.9411 36 18 36V34C26.8366 34 34 26.8366 34 18Z" fill="black"/>
<path d="M22.5 2.64258C29.1456 4.58666 34 10.726 34 18C34 25.2739 29.1455 31.4123 22.5 33.3564C15.8545 31.4123 11 25.2739 11 18C11 10.726 15.8544 4.58666 22.5 2.64258Z" fill="black"/>
</svg>
