<svg width="36" height="36" viewBox="0 0 36 36" fill="none" xmlns="http://www.w3.org/2000/svg">
<circle cx="18" cy="18" r="18" fill="white"/>
<circle cx="18" cy="18" r="18" fill="url(#paint0_linear_2031_300)" style="mix-blend-mode:plus-darker"/>
<g style="mix-blend-mode:multiply">
<path fill-rule="evenodd" clip-rule="evenodd" d="M9.74851 4.40315C11.3351 4.36689 12.1853 5.13375 12.2992 6.70383C12.0967 8.53808 11.2156 9.95682 9.65576 10.9601C8.7558 11.5478 7.78191 11.7318 6.73411 11.5123C5.92713 11.1711 5.47107 10.5652 5.36603 9.69473C5.30175 9.03673 5.40999 8.4079 5.69066 7.80816C6.40053 6.33692 7.50579 5.27092 9.0065 4.61021C9.25572 4.52554 9.50305 4.45652 9.74851 4.40315Z" fill="black" fill-opacity="0.1"/>
<path fill-rule="evenodd" clip-rule="evenodd" d="M22.2235 3.43687C23.882 3.33583 25.2346 3.91868 26.2813 5.18539C26.7091 5.75086 26.9487 6.38737 27.0002 7.09496C26.9253 8.50381 26.1833 9.31674 24.7741 9.53369C22.7229 9.64758 21.2157 8.81169 20.2525 7.02594C19.7575 5.90077 19.9507 4.91147 20.8322 4.05806C21.2531 3.74797 21.7168 3.54091 22.2235 3.43687Z" fill="black" fill-opacity="0.1"/>
<path fill-rule="evenodd" clip-rule="evenodd" d="M14.3861 1.9184C14.9101 1.87179 15.3738 2.00983 15.7773 2.33253C16.111 2.77523 16.0646 3.18166 15.6382 3.55189C15.1648 3.86888 14.6392 4.02993 14.0614 4.03504C13.6183 4.02928 13.2396 3.87592 12.9252 3.5749C12.733 3.04261 12.8798 2.6208 13.3658 2.30952C13.6954 2.13688 14.0355 2.00652 14.3861 1.9184Z" fill="black" fill-opacity="0.1"/>
<path fill-rule="evenodd" clip-rule="evenodd" d="M18.2352 1.32021C18.7447 1.28124 18.9534 1.51131 18.8613 2.01042C18.7259 2.26465 18.5172 2.34899 18.2352 2.26349C17.8045 1.94747 17.8045 1.63301 18.2352 1.32021Z" fill="black" fill-opacity="0.1"/>
<path fill-rule="evenodd" clip-rule="evenodd" d="M14.4788 5.96761C15.0584 5.96702 15.2825 6.2431 15.1513 6.79586C14.7476 7.19728 14.4075 7.15127 14.131 6.65782C14.0988 6.35358 14.2147 6.12351 14.4788 5.96761Z" fill="black" fill-opacity="0.1"/>
<path fill-rule="evenodd" clip-rule="evenodd" d="M29.69 8.08424C30.5766 8.13564 31.1022 8.59578 31.2667 9.46466C31.1824 10.1434 30.8114 10.3658 30.1537 10.1319C29.4916 9.78215 29.1901 9.23767 29.2494 8.49837C29.361 8.31855 29.5078 8.1805 29.69 8.08424Z" fill="black" fill-opacity="0.1"/>
<path fill-rule="evenodd" clip-rule="evenodd" d="M13.273 9.74073C13.7597 9.66752 14.1539 9.82088 14.4556 10.2009C14.7298 11.1337 14.382 11.6859 13.4122 11.8574C12.6607 11.7478 12.3439 11.3184 12.4615 10.569C12.5859 10.1465 12.8564 9.8704 13.273 9.74073Z" fill="black" fill-opacity="0.1"/>
<path fill-rule="evenodd" clip-rule="evenodd" d="M3.39506 11.0291C3.89313 10.9938 4.17908 11.2238 4.25301 11.7193C4.34061 12.3322 4.13192 12.8153 3.62694 13.1688C2.94044 13.3791 2.58488 13.1183 2.5603 12.3865C2.58757 11.7711 2.86582 11.3186 3.39506 11.0291Z" fill="black" fill-opacity="0.1"/>
<path fill-rule="evenodd" clip-rule="evenodd" d="M25.748 11.6273C26.1053 11.6069 26.3449 11.7603 26.4669 12.0874C26.4598 12.5544 26.2201 12.7615 25.748 12.7086C25.4014 12.5651 25.2855 12.312 25.4002 11.9494C25.481 11.8 25.5969 11.6927 25.748 11.6273Z" fill="black" fill-opacity="0.1"/>
<path fill-rule="evenodd" clip-rule="evenodd" d="M22.3626 11.9034C23.2963 11.899 23.706 12.3591 23.5916 13.2838C23.3839 13.8204 22.9897 14.0581 22.409 13.997C21.6331 13.6513 21.4244 13.0915 21.7829 12.3175C21.9359 12.1159 22.1292 11.9778 22.3626 11.9034Z" fill="black" fill-opacity="0.1"/>
<path fill-rule="evenodd" clip-rule="evenodd" d="M32.4261 12.1335C33.1289 12.1946 33.4612 12.578 33.4232 13.2838C33.2549 13.7333 32.9534 13.8483 32.5188 13.6289C32.1471 13.3201 32.0158 12.9289 32.1247 12.4555C32.2032 12.324 32.3037 12.2167 32.4261 12.1335Z" fill="black" fill-opacity="0.1"/>
<path fill-rule="evenodd" clip-rule="evenodd" d="M7.01236 14.4802C7.79082 14.4605 8.04589 14.8132 7.77756 15.5385C7.54577 15.7735 7.27522 15.8271 6.96599 15.6995C6.52208 15.271 6.53753 14.8646 7.01236 14.4802Z" fill="black" fill-opacity="0.1"/>
<path fill-rule="evenodd" clip-rule="evenodd" d="M3.16319 15.4004C3.53697 15.3826 3.83841 15.5206 4.06751 15.8145C4.63635 16.7999 4.65184 17.7968 4.11388 18.8054C3.78146 19.3344 3.3409 19.4494 2.79218 19.1505C2.31076 18.6615 2.07888 18.0709 2.09655 17.379C2.09687 16.695 2.32875 16.1045 2.79218 15.6075C2.91271 15.5249 3.03639 15.4559 3.16319 15.4004Z" fill="black" fill-opacity="0.1"/>
<path fill-rule="evenodd" clip-rule="evenodd" d="M29.5508 15.9986C30.358 15.935 30.8758 16.2877 31.1044 17.0569C31.245 17.7349 31.0672 18.3101 30.5711 18.7824C29.8736 19.186 29.2939 19.0556 28.832 18.3913C28.594 17.8669 28.563 17.3301 28.7393 16.7808C28.9129 16.4167 29.1834 16.156 29.5508 15.9986Z" fill="black" fill-opacity="0.1"/>
<path fill-rule="evenodd" clip-rule="evenodd" d="M9.98039 16.2747C10.4494 16.3029 10.6581 16.5483 10.6065 17.0109C10.4337 17.3608 10.1632 17.4606 9.79488 17.31C9.50457 17.0256 9.48913 16.7265 9.74851 16.4127C9.8248 16.3577 9.90206 16.3117 9.98039 16.2747Z" fill="black" fill-opacity="0.1"/>
<path fill-rule="evenodd" clip-rule="evenodd" d="M33.2609 18.8515C33.7738 18.8157 34.052 19.0535 34.0956 19.5647C33.9986 20.2158 33.6431 20.4458 33.029 20.2549C32.7055 19.9124 32.6669 19.5366 32.913 19.1275C33.012 19.0055 33.1279 18.9134 33.2609 18.8515Z" fill="black" fill-opacity="0.1"/>
<path fill-rule="evenodd" clip-rule="evenodd" d="M6.68772 19.4496C7.5887 19.3866 8.29208 19.7241 8.7978 20.4619C9.31628 21.2844 9.42447 22.1587 9.12243 23.0847C8.78769 23.8375 8.208 24.1672 7.38335 24.074C6.48144 23.7927 5.88631 23.2022 5.5979 22.3025C5.26381 21.377 5.41068 20.5411 6.03846 19.7947C6.23857 19.6419 6.45501 19.5268 6.68772 19.4496Z" fill="black" fill-opacity="0.1"/>
<path fill-rule="evenodd" clip-rule="evenodd" d="M24.9133 21.4282C25.7252 21.4285 26.0885 21.8273 26.0031 22.6246C25.7864 23.2536 25.3458 23.522 24.6814 23.4298C24.1743 23.1981 23.9811 22.807 24.1017 22.2565C24.2572 21.8645 24.5277 21.5885 24.9133 21.4282Z" fill="black" fill-opacity="0.1"/>
<path fill-rule="evenodd" clip-rule="evenodd" d="M30.432 22.3945C31.4064 22.2955 31.9707 22.725 32.1247 23.6829C32.1397 25.2868 31.4518 26.4909 30.061 27.295C29.5404 27.5238 29.0303 27.5085 28.5306 27.249C28.2266 27.0063 28.0488 26.6919 27.9972 26.3057C27.9227 24.7895 28.5024 23.5855 29.7363 22.6936C29.962 22.566 30.1939 22.4662 30.432 22.3945Z" fill="black" fill-opacity="0.1"/>
<path fill-rule="evenodd" clip-rule="evenodd" d="M3.20957 22.3945C3.66344 22.361 3.96489 22.5604 4.11389 22.9927C4.20669 23.3461 4.12163 23.6452 3.85882 23.89C3.4145 24.0263 3.09762 23.8805 2.90813 23.4528C2.74368 23.0171 2.84418 22.6644 3.20957 22.3945Z" fill="black" fill-opacity="0.1"/>
<path fill-rule="evenodd" clip-rule="evenodd" d="M19.6728 26.4437C20.6683 26.4378 21.0934 26.9286 20.9482 27.9162C20.6644 28.5748 20.162 28.8432 19.441 28.7214C18.7839 28.4993 18.5288 28.0468 18.6758 27.364C18.8405 26.8706 19.1728 26.5638 19.6728 26.4437Z" fill="black" fill-opacity="0.1"/>
<path fill-rule="evenodd" clip-rule="evenodd" d="M5.62108 26.1216C6.23064 26.212 6.64027 26.5495 6.85003 27.1339C6.95252 27.4471 6.93708 27.7539 6.80366 28.0542C6.51223 28.3367 6.1953 28.3597 5.85296 28.1232C5.26111 27.6503 5.08331 27.0598 5.31964 26.3517C5.41077 26.2574 5.51126 26.1807 5.62108 26.1216Z" fill="black" fill-opacity="0.1"/>
<path fill-rule="evenodd" clip-rule="evenodd" d="M10.5369 26.6738C11.2083 26.688 11.5406 27.0254 11.534 27.6861C11.4063 28.0818 11.1358 28.2275 10.7224 28.1232C10.1917 27.8603 10.0294 27.4538 10.2354 26.9039C10.3266 26.8095 10.4271 26.7328 10.5369 26.6738Z" fill="black" fill-opacity="0.1"/>
<path fill-rule="evenodd" clip-rule="evenodd" d="M24.9597 29.2045C25.7244 29.2029 26.0104 29.571 25.8176 30.3089C25.5419 30.9024 25.0704 31.1861 24.4031 31.1601C23.9322 31.016 23.7544 30.7016 23.8698 30.2169C24.0542 29.6853 24.4174 29.3478 24.9597 29.2045Z" fill="black" fill-opacity="0.1"/>
<path fill-rule="evenodd" clip-rule="evenodd" d="M14.7571 29.8487C15.7343 29.8001 16.4222 30.2143 16.8208 31.0911C16.9497 31.8979 16.6174 32.3964 15.8237 32.5866C15.0047 32.6442 14.3786 32.3298 13.9455 31.6433C13.6116 30.7723 13.8821 30.1741 14.7571 29.8487Z" fill="black" fill-opacity="0.1"/>
<path fill-rule="evenodd" clip-rule="evenodd" d="M8.82099 30.1708C9.33637 30.1423 9.66099 30.3723 9.79488 30.8611C9.71321 31.2391 9.48133 31.3848 9.09925 31.2982C8.6578 31.12 8.49549 30.8056 8.61231 30.3549C8.67709 30.2827 8.74666 30.2213 8.82099 30.1708Z" fill="black" fill-opacity="0.1"/>
<path fill-rule="evenodd" clip-rule="evenodd" d="M20.7859 32.2875C21.3187 32.2256 21.5429 32.4557 21.4583 32.9777C21.2888 33.28 21.0337 33.3797 20.6931 33.2768C20.433 33.126 20.348 32.9036 20.438 32.6096C20.5188 32.4602 20.6348 32.3529 20.7859 32.2875Z" fill="black" fill-opacity="0.1"/>
</g>
<path d="M18 0C27.9411 0 36 8.05887 36 18C36 27.9411 27.9411 36 18 36V0Z" fill="url(#paint1_linear_2031_300)" fill-opacity="0.75" style="mix-blend-mode:screen"/>
<defs>
<linearGradient id="paint0_linear_2031_300" x1="0" y1="18" x2="36" y2="18" gradientUnits="userSpaceOnUse">
<stop/>
<stop offset="0.25" stop-opacity="0.75"/>
<stop offset="1" stop-opacity="0"/>
</linearGradient>
<linearGradient id="paint1_linear_2031_300" x1="36" y1="18" x2="18" y2="18" gradientUnits="userSpaceOnUse">
<stop stop-color="white" stop-opacity="0.88"/>
<stop offset="1" stop-color="white" stop-opacity="0"/>
</linearGradient>
</defs>
</svg>
